<?xml version="1.0" encoding="UTF-8" standalone="no"?>
<!DOCTYPE svg PUBLIC "-//W3C//DTD SVG 1.1//EN" "http://www.w3.org/Graphics/SVG/1.1/DTD/svg11.dtd">
<svg width="100%" height="100%" viewBox="0 0 2400 800" version="1.1" xmlns="http://www.w3.org/2000/svg" xmlns:xlink="http://www.w3.org/1999/xlink" xml:space="preserve" xmlns:serif="http://www.serif.com/" style="fill-rule:evenodd;clip-rule:evenodd;stroke-linejoin:round;stroke-miterlimit:2;">
    <g transform="matrix(3.71239,0,0,3.71239,-1015.67,-23.6318)">
        <path d="M918.12,113.94C918.12,130.75 913.95,147.38 906.08,162.11C889.25,193.61 856.82,214.15 821.28,216.07C820.92,216.17 820.55,216 820.17,216L377.73,216C370.26,216 362.66,215.36 355.17,213.69C345.08,211.42 335.5,207.92 326.71,202.85L325.32,202.02C316.98,197.07 309.36,190.92 302.7,183.74C285.03,164.74 275.3,139.97 275.3,114C275.3,78.1 294.47,44.38 325.33,25.99L326.64,25.2C335.51,20.1 345.08,16.38 355.17,14.11C362.67,12.42 370.26,11.56 377.73,11.56L378.14,11.57L820.17,11.56C820.56,11.56 820.941,11.62 821.3,11.72C875.67,14.66 918.12,59.35 918.12,113.94Z" style="fill:white;fill-rule:nonzero;"/>
    </g>
    <g transform="matrix(3.71239,0,0,3.71239,-1015.67,-23.6318)">
        <path d="M821.305,11.717C820.94,11.616 820.557,11.565 820.168,11.565L378.144,11.567L377.733,11.565C370.258,11.565 362.666,12.421 355.166,14.11C345.082,16.38 335.507,20.098 326.638,25.202L325.327,25.988C294.465,44.378 275.295,78.104 275.295,114.006C275.295,139.972 285.027,164.737 302.696,183.741C309.363,190.916 316.978,197.07 325.316,202.019L326.705,202.851C335.498,207.915 345.076,211.636 355.166,213.907C362.663,215.595 370.255,216.449 377.733,216.449L820.168,216.449C820.553,216.449 820.924,216.397 821.279,216.299C856.82,214.371 889.25,193.718 906.08,162.225C913.953,147.487 918.115,130.813 918.115,114.005C918.115,59.407 875.67,14.658 821.305,11.717ZM898.459,158.151C882.916,187.239 852.842,206.23 819.975,207.713C819.721,207.724 819.475,207.758 819.235,207.81L378.116,207.809L377.734,207.81C372.008,207.81 366.204,207.26 360.434,206.175L360.434,21.84C366.207,20.753 372.011,20.203 377.734,20.203L819.235,20.203C819.475,20.255 819.721,20.289 819.975,20.3C870.163,22.563 909.477,63.723 909.477,114.004C909.477,129.396 905.666,144.662 898.459,158.151Z" style="fill-rule:nonzero;"/>
    </g>
    <g transform="matrix(3.71239,0,0,3.71239,-1015.67,-23.6318)">
        <path d="M456.991,143.661L446.772,143.661L446.772,134.564L446.547,134.564C443.403,141.078 435.766,145.007 427.791,145.007C412.968,145.007 406.34,135.799 406.34,120.413L406.34,86.385L416.897,86.385L416.897,116.034C416.897,129.398 419.819,135.912 429.028,136.473C441.044,136.473 446.435,126.815 446.435,112.888L446.435,86.385L456.991,86.385L456.991,143.661Z" style="fill-rule:nonzero;"/>
        <rect x="473.922" y="59.432" width="10.557" height="84.229" style="fill-rule:nonzero;"/>
        <path d="M501.24,86.385L511.125,86.385L511.125,94.695L511.35,94.695C515.391,88.07 521.12,85.038 529.545,85.038C536.17,85.038 542.795,88.408 545.828,96.156C549.758,87.958 558.408,85.038 563.572,85.038C578.174,85.038 583.451,94.473 583.451,106.938L583.451,143.662L572.892,143.662L572.892,109.52C572.892,102.445 571.206,93.573 562.673,93.573C551.892,93.573 547.624,104.13 547.624,114.799L547.624,143.662L537.065,143.662L537.065,109.52C537.065,102.445 535.381,93.573 526.846,93.573C516.065,93.573 511.795,104.13 511.795,114.799L511.795,143.662L501.24,143.662L501.24,86.385Z" style="fill-rule:nonzero;"/>
        <rect x="600.361" y="59.432" width="10.555" height="84.229" style="fill-rule:nonzero;"/>
        <path d="M672.471,141.304C668.43,142.763 663.823,145.008 654.389,145.008C634.063,145.008 624.741,132.655 624.741,114.013C624.741,97.054 635.411,85.037 651.583,85.037C670.675,85.037 676.853,98.964 676.853,117.381L635.974,117.381C635.974,128.725 644.845,136.474 654.839,136.474C661.802,136.474 669.89,132.88 672.472,130.745L672.472,141.304L672.471,141.304ZM665.619,109.52C665.619,100.761 660.455,93.573 651.357,93.573C641.025,93.573 636.757,102.108 635.972,109.52L665.619,109.52Z" style="fill-rule:nonzero;"/>
        <path d="M689.844,86.385L699.725,86.385L699.725,95.257L699.95,95.257C702.761,89.304 708.823,85.037 714.888,85.037C718.033,85.037 719.605,85.374 721.851,85.822L721.851,95.257C719.943,94.472 717.808,94.246 716.011,94.246C706.575,94.246 700.402,103.23 700.402,117.606L700.402,143.661L689.845,143.661L689.845,86.385L689.844,86.385Z" style="fill-rule:nonzero;"/>
        <path d="M731.732,86.385L741.951,86.385L741.951,95.483L742.176,95.483C745.321,88.968 752.957,85.038 760.932,85.038C775.754,85.038 782.383,94.247 782.383,109.634L782.383,143.662L771.824,143.662L771.824,114.014C771.824,100.649 768.904,94.135 759.695,93.574C747.679,93.574 742.289,103.232 742.289,117.159L742.289,143.663L731.732,143.663L731.732,86.385Z" style="fill-rule:nonzero;"/>
        <path d="M828.929,94.92L813.768,94.92L813.768,126.253C813.768,132.88 817.813,136.474 822.641,136.474C825.897,136.474 828.256,135.463 829.829,134.453L829.829,143.437C827.47,144.112 824.214,145.008 820.845,145.008C809.95,145.008 803.212,139.843 803.212,128.388L803.212,94.92L790.296,94.92L790.296,86.385L803.212,86.385L803.212,73.132L813.769,69.763L813.769,86.385L828.929,86.385L828.929,94.92Z" style="fill-rule:nonzero;"/>
    </g>
</svg>
