<?xml version="1.0" encoding="UTF-8" standalone="no"?>
<!DOCTYPE svg PUBLIC "-//W3C//DTD SVG 1.1//EN" "http://www.w3.org/Graphics/SVG/1.1/DTD/svg11.dtd">
<svg width="100%" height="100%" viewBox="0 0 800 800" version="1.1" xmlns="http://www.w3.org/2000/svg" xmlns:xlink="http://www.w3.org/1999/xlink" xml:space="preserve" xmlns:serif="http://www.serif.com/" style="fill-rule:evenodd;clip-rule:evenodd;stroke-linejoin:round;stroke-miterlimit:2;">
    <g transform="matrix(3.86084,0,0,3.86084,-76.2499,-40.1129)">
        <path d="M225.86,114.01C225.86,130.82 221.68,147.5 213.82,162.21C195.94,195.67 161.3,216.46 123.43,216.46C105.49,216.46 87.85,211.74 72.38,202.84L71.05,202.04C71.04,202.04 71.05,202.04 71.04,202.03C71,202.01 71,201.99 70.97,201.97L69,200.77L69,200.67C61,195.95 54.55,190.29 48.46,183.74C30.79,164.74 21.03,139.97 21.03,114.01C21.03,78.95 39,46 69,27.35L69,27.25L72.37,25.2C87.89,16.27 105.49,11.55 123.43,11.55C179.9,11.55 225.86,57.51 225.86,114.01Z" style="fill:white;fill-rule:nonzero;"/>
    </g>
    <g transform="matrix(3.86084,0,0,3.86084,-76.2499,-40.1129)">
        <path d="M123.428,11.552C105.49,11.552 87.839,16.275 72.316,25.202L68.891,27.246L68.891,27.349C39.294,46.003 20.979,78.948 20.979,114.007C20.979,139.974 30.709,164.739 48.377,183.743C54.471,190.295 61.383,195.947 68.891,200.669L68.891,200.768L70.915,201.971C70.946,201.991 70.977,202.015 71.011,202.034C71.019,202.039 71.031,202.041 71.039,202.045L72.374,202.841C87.838,211.738 105.489,216.461 123.427,216.461C161.294,216.461 195.933,195.672 213.818,162.211C221.677,147.495 225.853,130.824 225.853,114.007C225.854,57.51 179.897,11.552 123.428,11.552ZM123.428,207.822C107.306,207.822 91.444,203.677 77.538,195.847L77.538,32.166C91.5,24.337 107.334,20.19 123.428,20.19C175.144,20.19 217.216,62.29 217.216,114.006C217.216,129.384 213.414,144.673 206.187,158.15C189.832,188.789 158.098,207.822 123.428,207.822Z" style="fill-rule:nonzero;"/>
    </g>
    <g transform="matrix(3.86084,0,0,3.86084,-76.2499,-40.1129)">
        <path d="M154.58,143.876L144.361,143.876L144.361,134.779L144.136,134.779C140.992,141.295 133.354,145.226 125.38,145.226C110.557,145.226 103.929,136.016 103.929,120.628L103.929,86.601L114.486,86.601L114.486,116.251C114.486,129.613 117.408,136.129 126.617,136.689C138.633,136.689 144.023,127.033 144.023,113.105L144.023,86.601L154.58,86.601L154.58,143.876Z" style="fill-rule:nonzero;"/>
        <rect x="171.515" y="59.646" width="10.556" height="84.229" style="fill-rule:nonzero;"/>
    </g>
</svg>
